<svg width="20" height="33" viewBox="0 0 20 33" fill="none" xmlns="http://www.w3.org/2000/svg">
<path fill-rule="evenodd" clip-rule="evenodd" d="M13.1568 0.0587674C10.9919 0.351019 9.47132 0.984296 8.22383 2.11305C7.17354 3.06341 6.51818 4.17842 6.14731 5.64574C6.00725 6.19999 5.98935 6.53495 5.96041 9.14567L5.92838 12.0327H2.96419H0V14.9674V17.9021L2.95088 17.9189L5.90177 17.9358L5.92086 25.4679L5.93996 33H9.4732H13.0064V25.4518V17.9035H15.9385C17.5512 17.9035 18.8718 17.8963 18.8733 17.8874C19.0702 16.7125 19.7396 12.1147 19.7187 12.0811C19.7023 12.0544 18.183 12.0327 16.3426 12.0327H12.9966L13.0219 9.62953C13.0467 7.27913 13.0511 7.21797 13.2249 6.84449C13.5771 6.08793 14.3181 5.64091 15.4244 5.51768C15.7279 5.48388 16.8815 5.4553 17.9881 5.4542L20 5.4522L19.9804 2.82322L19.9608 0.194248L18.9834 0.118056C17.3809 -0.00690858 13.9052 -0.0422627 13.1568 0.0587674Z" fill="white"/>
</svg>
