<svg width="54" height="54" viewBox="0 0 54 54" fill="none" xmlns="http://www.w3.org/2000/svg">
<path fill-rule="evenodd" clip-rule="evenodd" d="M12.8732 0.161537C6.25157 1.07763 1.05501 6.31504 0.16375 12.9709C-0.0545834 14.6016 -0.0545834 39.3883 0.16375 41.019C0.605056 44.3141 2.05896 47.2603 4.39874 49.6004C6.7321 51.9343 9.69304 53.3961 12.9786 53.8362C14.609 54.0546 39.391 54.0546 41.0214 53.8362C47.7238 52.9384 52.9386 47.7226 53.8362 41.019C54.0546 39.3883 54.0546 14.6016 53.8362 12.9709C52.9386 6.26727 47.7238 1.05148 41.0214 0.153629C39.4564 -0.0559934 14.3946 -0.0489287 12.8732 0.161537ZM39.8816 4.85327C42.4596 5.09779 44.5738 6.09223 46.3041 7.87424C47.9936 9.61417 48.9004 11.6101 49.1375 14.1109C49.2809 15.6236 49.2809 38.3662 49.1375 39.8789C48.9004 42.3797 47.9936 44.3757 46.3041 46.1156C44.5738 47.8976 42.4596 48.8921 39.8816 49.1366C38.3692 49.28 15.6308 49.28 14.1184 49.1366C11.5404 48.8921 9.42621 47.8976 7.69589 46.1156C6.00636 44.3757 5.0996 42.3797 4.86251 39.8789C4.71913 38.3662 4.71913 15.6236 4.86251 14.1109C5.10698 11.5324 6.10124 9.41783 7.88291 7.68718C9.56116 6.05702 11.6448 5.08303 13.9274 4.8616C15.2613 4.73232 38.5269 4.72484 39.8816 4.85327ZM40.2099 9.29119C39.4214 9.59435 38.6926 10.2924 38.3279 11.094C37.3094 13.3322 38.8617 15.8733 41.3307 16.0095C42.519 16.075 43.733 15.4662 44.3888 14.4762C44.8139 13.834 44.9641 13.2892 44.9562 12.416C44.9351 10.0661 42.4497 8.42982 40.2099 9.29119ZM25.1024 13.2379C22.0491 13.6643 19.3834 14.9949 17.1928 17.1859C14.8352 19.5438 13.5287 22.3302 13.1744 25.756C12.834 29.0453 13.8762 32.7017 15.9169 35.3777C16.5351 36.1884 17.8083 37.4618 18.6188 38.0801C21.2943 40.1212 24.95 41.1635 28.2387 40.8232C31.6639 40.4688 34.4497 39.162 36.8072 36.804C39.1648 34.446 40.4713 31.6597 40.8256 28.2339C41.105 25.5338 40.4471 22.514 39.051 20.0883C36.2237 15.1757 30.6894 12.4577 25.1024 13.2379ZM29.1085 18.142C32.3864 18.924 35.0694 21.6075 35.8513 24.886C36.1429 26.109 36.1429 27.8809 35.8513 29.1038C35.2286 31.715 33.3998 33.9866 30.9713 35.1649C29.6477 35.8073 28.5211 36.0616 27 36.0616C25.4789 36.0616 24.3523 35.8073 23.0287 35.1649C20.6002 33.9866 18.7714 31.715 18.1487 29.1038C17.8571 27.8809 17.8571 26.109 18.1487 24.886C18.9244 21.6331 21.5967 18.942 24.8388 18.1484C26.0247 17.8582 27.9069 17.8554 29.1085 18.142Z" fill="white"/>
</svg>
