<?xml version="1.0" encoding="utf-8"?>
<!-- Generator: Adobe Illustrator 26.3.1, SVG Export Plug-In . SVG Version: 6.00 Build 0)  -->
<svg version="1.0" id="Layer_1" xmlns="http://www.w3.org/2000/svg" xmlns:xlink="http://www.w3.org/1999/xlink" x="0px" y="0px"
	 viewBox="0 0 299 71" style="enable-background:new 0 0 299 71;" xml:space="preserve">
<style type="text/css">
	.st0{fill:#FFFFFF;}
	.st1{fill:#009DCF;}
</style>
<g>
	<g>
		<path class="st0" d="M75.12,6.63H35.51c-15.4,0-28.06,12.31-28.27,27.71c0,0.27-0.01,0.54-0.01,0.82
			c0,27.55,17.71,27.55,17.71,27.55h49.19V30.25H47.57v7.87h13.77v15.74h-30.5c-9.65,0-12.65-7.65-12.79-17.3c0-0.14,0-0.27,0-0.41
			s0-0.27,0-0.41C18.22,25,27.18,16.47,37.92,16.47h37.2V6.63z"/>
	</g>
	<g>
		<polygon class="st0" points="79.06,62.71 107.59,6.63 115.46,6.63 146.94,62.71 135.14,62.71 112.51,21.39 90.86,62.71 		"/>
	</g>
	<g>
		<polygon class="st0" points="152.81,62.71 164.62,62.71 164.62,39.1 215.78,39.1 215.78,29.26 152.81,29.26 		"/>
	</g>
	<g>
		<rect x="152.81" y="5.65" class="st1" width="62.97" height="11.81"/>
	</g>
	<g>
		<polygon class="st0" points="290.58,62.71 278.77,62.71 278.77,39.1 227.62,39.1 227.62,29.26 290.58,29.26 		"/>
	</g>
	<g>
		<rect x="227.62" y="5.65" class="st1" width="62.97" height="11.81"/>
	</g>
</g>
</svg>
