<svg width="54" height="54" viewBox="0 0 54 54" fill="none" xmlns="http://www.w3.org/2000/svg">
<path fill-rule="evenodd" clip-rule="evenodd" d="M23.8968 0.161131C11.4133 1.69436 1.60217 11.6458 0.31025 24.0853C0.118808 25.9289 0.234761 29.4196 0.546123 31.1816C1.03895 33.9715 1.85448 36.426 3.12203 38.9341L3.75892 40.1947L1.86117 47.0836C0.817361 50.8725 -0.0199279 53.9848 0.00036109 53.9998C0.0207634 54.0147 3.19979 53.1966 7.06489 52.1818C12.6916 50.7044 14.1488 50.358 14.3757 50.444C14.5316 50.503 15.2712 50.8272 16.0193 51.1643C18.4489 52.2593 21.0005 52.9855 23.6853 53.3463C25.5512 53.5971 28.8259 53.5956 30.6409 53.3431C36.5985 52.5143 41.9213 49.8961 46.1164 45.7307C48.3102 43.5526 49.769 41.5603 51.1578 38.8458C52.4085 36.4011 53.291 33.7361 53.7841 30.9143C54.0723 29.2651 54.0719 24.4189 53.7834 22.6905C53.2959 19.7706 52.5435 17.4378 51.2579 14.861C47.5995 7.5282 40.8434 2.30101 32.7655 0.553283C30.2474 0.00848417 26.492 -0.157569 23.8968 0.161131ZM30.981 4.82369C34.2324 5.42133 36.9286 6.5009 39.5953 8.27285C44.1479 11.2981 47.4993 15.9958 48.8239 21.209C49.7968 25.0375 49.7203 29.3858 48.6154 33.0672C46.8289 39.0194 42.5711 44.0297 36.9992 46.736C33.7598 48.3094 30.7623 48.9954 27.1272 48.9954C22.9608 48.9954 19.2674 47.9907 15.498 45.8315L14.8632 45.468L10.6917 46.5574C8.39739 47.1565 6.50281 47.6294 6.4815 47.6082C6.46019 47.5871 6.93092 45.8028 7.52757 43.6431C8.12412 41.4834 8.61661 39.637 8.62193 39.54C8.62726 39.4429 8.33392 38.8819 7.97008 38.2932C2.62444 29.6462 4.02551 18.2427 11.3196 11.0308C14.9479 7.44326 19.5414 5.2386 24.6902 4.61336C26.0809 4.4445 29.5485 4.56042 30.981 4.82369ZM16.546 14.6533C15.8905 14.9758 14.6928 16.3817 14.192 17.4165C13.2084 19.449 13.2284 22.0111 14.2465 24.3835C15.4976 27.2988 18.7711 31.4383 22.0026 34.1911C24.2677 36.1207 26.1602 37.2514 28.9407 38.3359C31.7811 39.4439 32.3259 39.5715 34.2113 39.5707C35.6942 39.5702 35.9295 39.5421 36.619 39.2839C37.7527 38.8594 38.5989 38.3247 39.4418 37.4999C40.0958 36.8599 40.2275 36.6597 40.4416 35.9791C40.7087 35.1304 40.8612 33.7647 40.7419 33.2919C40.6794 33.0448 40.3592 32.8441 38.7489 32.0428C35.7985 30.5746 34.6093 30.0694 34.1039 30.0694C33.6898 30.0694 33.6192 30.1199 33.1186 30.7735C31.9741 32.2677 30.9239 33.4247 30.6503 33.493C30.3226 33.5747 29.6787 33.3404 28.1915 32.598C25.7836 31.3961 23.8191 29.7888 22.1301 27.6389C21.2108 26.4689 20.3831 25.1355 20.3831 24.8249C20.3831 24.6918 20.8093 24.0304 21.3302 23.3552C22.3511 22.0316 22.65 21.5377 22.65 21.1742C22.65 21.0467 22.4286 20.4231 22.1581 19.7887C21.8875 19.1541 21.3419 17.8492 20.9455 16.8888C20.4542 15.6985 20.1092 15.0261 19.8619 14.7765L19.499 14.4104L18.2692 14.4105C17.2383 14.4105 16.9596 14.4498 16.546 14.6533Z" fill="white"/>
</svg>
